# xmcd CD database file
#
# Track frame offsets:
#	150
#	13504
#	27569
#	41902
#	53937
#	68603
#	81062
#	93729
#	106589
#	118982
#	133865
#	148849
#	164185
#	177997
#	190435
#	204982
#	219613
#	234520
#	248128
#	261327
#	273488
#	287781
#
# Disc length: 4026 seconds
#
# Revision: 4
# Processed by: cddbd v1.5.2PL0 Copyright (c) Steve Scherf et al.
# Submitted via: CDex 1.70beta2
#
DISCID=5b0fb816
DTITLE=Big Joe Williams - Meet Me Around The Corner
DYEAR=1938
DGENRE=Blues
TTITLE0=Meet Me Around The Corner
TTITLE1=Stepfather Blues
TTITLE2=Stack O'Dollars
TTITLE3=I Won't Be In Hard Luck No More
TTITLE4=Highway 49
TTITLE5=I'm Getting Wild About Her
TTITLE6=Please Don't Go
TTITLE7=Crawling King Snake
TTITLE8=His Spirit Lives On
TTITLE9=Little Leg Woman
TTITLE10=49 Highway Blues
TTITLE11=Baby Please Don't go
TTITLE12=I Know You Gonna Miss Me
TTITLE13=Vitamin A
TTITLE14=Break 'Em On Down
TTITLE15=Providence Help The Poor People
TTITLE16=Wild Cow Blues
TTITLE17=Rootin' Ground Hog
TTITLE18=Brother James
TTITLE19=Peach Orchard Mama
TTITLE20=Someday Baby
TTITLE21=Somebody's Been Worryin'
EXTD=YEAR: 1938
EXTT0=
EXTT1=
EXTT2=
EXTT3=
EXTT4=
EXTT5=
EXTT6=
EXTT7=
EXTT8=
EXTT9=
EXTT10=
EXTT11=
EXTT12=
EXTT13=
EXTT14=
EXTT15=
EXTT16=
EXTT17=
EXTT18=
EXTT19=
EXTT20=
EXTT21=
PLAYORDER=
